<?xml version="1.0" encoding="UTF-8" standalone="no"?>
<!-- Created with Inkscape (http://www.inkscape.org/) -->

<svg
   xmlns:dc="http://purl.org/dc/elements/1.1/"
   xmlns:cc="http://creativecommons.org/ns#"
   xmlns:rdf="http://www.w3.org/1999/02/22-rdf-syntax-ns#"
   xmlns:svg="http://www.w3.org/2000/svg"
   xmlns="http://www.w3.org/2000/svg"
   xmlns:sodipodi="http://sodipodi.sourceforge.net/DTD/sodipodi-0.dtd"
   xmlns:inkscape="http://www.inkscape.org/namespaces/inkscape"
   inkscape:version="0.91 r13725"
   version="1.1"
   id="svg2"
   viewBox="0 0 1024 1024"
   height="1024"
   width="1024"
   sodipodi:docname="Icon.svg"
   inkscape:export-filename="/Users/Corwin/Desktop/Data_Linearization/152.png"
   inkscape:export-xdpi="13.359375"
   inkscape:export-ydpi="13.359375">
  <sodipodi:namedview
     inkscape:window-maximized="0"
     inkscape:window-y="7"
     inkscape:window-x="147"
     inkscape:window-height="940"
     inkscape:window-width="900"
     width="1024px"
     units="px"
     showgrid="false"
     inkscape:current-layer="layer1"
     inkscape:document-units="px"
     inkscape:cy="-2199.9287"
     inkscape:cx="-5260.7182"
     inkscape:zoom="0.061871843"
     inkscape:pageshadow="2"
     inkscape:pageopacity="1"
     borderopacity="1.0"
     bordercolor="#666666"
     pagecolor="#ffffff"
     id="base" />
  <defs
     id="defs4" />
  <metadata
     id="metadata7">
    <rdf:RDF>
      <cc:Work
         rdf:about="">
        <dc:format>image/svg+xml</dc:format>
        <dc:type
           rdf:resource="http://purl.org/dc/dcmitype/StillImage" />
        <dc:title />
      </cc:Work>
    </rdf:RDF>
  </metadata>
  <g
     transform="translate(0,-28.3622)"
     id="layer1"
     inkscape:groupmode="layer"
     inkscape:label="Layer 1">
    <path
       d="m 87.901168,958.57018 c 5.776126,-1.7e-4 11.552252,-0.11797 17.328382,-0.35367 5.77612,-0.23562 11.55225,-0.58946 17.32837,-1.06086 5.77613,-0.47148 11.55225,-1.06111 17.32838,-1.7682 5.77613,-0.70718 11.55225,-1.53259 17.32838,-2.47556 5.77612,-0.94288 11.55225,-2.00407 17.32837,-3.18273 0.059,-0.0118 0.11782,-0.0237 0.17673,-0.0364 m 0,0 c 5.71722,-1.16902 11.43444,-2.4539 17.15165,-3.85389 5.77613,-1.41444 11.55226,-2.94712 17.32838,-4.59735 5.77613,-1.65022 11.55225,-3.41868 17.32838,-5.30461 5.77612,-1.88593 11.55225,-3.89017 17.32838,-6.01188 5.77612,-2.12171 11.55225,-4.36165 17.32837,-6.71915 5.77613,-2.35751 11.55225,-4.83323 17.32838,-7.42647 5.77612,-2.59325 11.55225,-5.30473 17.32838,-8.13374 3.71915,-1.82154 7.43829,-3.6921 11.15744,-5.6115 m 0,0 c 2.05698,-1.06158 4.11396,-2.13808 6.17094,-3.2295 5.77612,-3.06477 11.55225,-6.24777 17.32837,-9.54829 5.77613,-3.30053 11.55225,-6.71928 17.32838,-10.25557 5.77613,-3.53629 11.55225,-7.19081 17.32838,-10.96285 5.77612,-3.77205 11.55225,-7.66233 17.32837,-11.67014 5.77613,-4.0078 11.55226,-8.13384 17.32839,-12.3774 5.77612,-4.24358 11.55225,-8.60537 17.32837,-13.0847 5.77613,-4.47933 11.55225,-9.07689 17.32838,-13.79198 5.77612,-4.71508 11.55225,-9.5484 17.32838,-14.49925 5.77612,-4.95085 11.55225,-10.01992 17.32837,-15.20654 5.77613,-5.1866 11.55225,-10.49144 17.32838,-15.91381 5.77612,-5.42237 11.55226,-10.96297 17.32838,-16.6211 5.77613,-5.65813 11.55225,-11.43449 17.32838,-17.32837 5.77612,-5.8939 11.55224,-11.90601 17.32837,-18.03567 5.77613,-6.12964 11.55226,-12.37752 17.32838,-18.74293 5.77613,-6.36542 11.55225,-12.84906 17.32838,-19.45022 5.77612,-6.60117 11.55225,-13.32057 17.32837,-20.15751 5.77613,-6.83692 11.55226,-13.79209 17.32839,-20.86477 5.77612,-7.07269 11.55225,-14.26362 17.32837,-21.57207 5.77612,-7.30845 11.55225,-14.73513 17.32837,-22.27934 5.77614,-7.54421 11.55226,-15.20665 17.32839,-22.98662 5.77612,-7.77997 11.55225,-15.67818 17.32837,-23.6939 5.77613,-8.01573 11.55225,-16.1497 17.32838,-24.40119 5.77613,-8.25149 11.55226,-16.62122 17.32838,-25.10846 5.77613,-8.48726 11.55225,-17.09274 17.32837,-25.81575 5.77613,-8.72301 11.55225,-17.56425 17.32838,-26.52302 5.77613,-8.95878 11.55226,-18.03579 17.32838,-27.23032 5.77613,-9.19453 11.55225,-18.50729 17.32838,-27.93758 5.77612,-9.43029 11.55225,-18.97882 17.32838,-28.64487 5.77613,-9.66606 11.55225,-19.45034 17.32837,-29.35215 5.77613,-9.90182 11.55225,-19.92186 17.32838,-30.05944 5.77612,-10.13757 11.55225,-20.39337 17.32838,-30.7667 5.77613,-10.37334 11.55225,-20.8649 17.32838,-31.474 5.77612,-10.60909 11.55225,-21.33642 17.32837,-32.18127 5.77613,-10.84485 11.55225,-21.80794 17.32838,-32.88855 5.77613,-11.08062 11.55225,-22.27946 17.32838,-33.59583 5.77611,-11.31638 11.55221,-22.75099 17.32839,-34.30312"
       style="opacity:1;fill:none;fill-opacity:1;stroke:#0000ff;stroke-width:29.61400032;stroke-linecap:butt;stroke-linejoin:miter;stroke-miterlimit:0.5;stroke-dasharray:29.61400032, 177.68400192;stroke-dashoffset:0;stroke-opacity:1"
       id="path5303"
       inkscape:connector-curvature="0" />
    <path
       style="fill:none;fill-rule:evenodd;stroke:#00ff00;stroke-width:9;stroke-linecap:butt;stroke-linejoin:miter;stroke-opacity:1;stroke-miterlimit:4;stroke-dasharray:none"
       d="M 204.87745,960.24037 928.57143,232.3622"
       id="path5661"
       inkscape:connector-curvature="0"
       sodipodi:nodetypes="cc" />
    <g
       id="g5676">
      <path
         inkscape:connector-curvature="0"
         id="path5626"
         style="opacity:1;fill:none;fill-opacity:1;stroke:#000000;stroke-width:24.914;stroke-linecap:butt;stroke-linejoin:miter;stroke-miterlimit:0.5;stroke-dasharray:none;stroke-dashoffset:0;stroke-opacity:1"
         d="m 87.901168,962.57018 0,-849.0905 m 0,849.0905 849.090512,0" />
      <rect
         y="937.88434"
         x="75.444168"
         height="37.142857"
         width="14.534161"
         id="rect5663"
         style="opacity:1;fill:#000000;fill-opacity:1;stroke:none;stroke-width:5;stroke-linecap:butt;stroke-linejoin:miter;stroke-miterlimit:4;stroke-dasharray:none;stroke-dashoffset:0;stroke-opacity:1" />
    </g>
  </g>
</svg>
